<svg width="50" height="50" viewBox="0 0 70 50" fill="none" xmlns="http://www.w3.org/2000/svg">
<path fill-rule="evenodd" clip-rule="evenodd" d="M25 50C31.68 50 37.748 47.3801 42.2327 43.1118C35.9965 46.0578 27.9654 44.7669 23.213 38.4587C19.9302 40.6516 15.1952 39.5551 12.4795 35.9106L12.4795 35.9105L12.4795 35.9105C11.6697 34.8237 11.1169 34.0818 10.7311 33.2614C9.90127 31.4964 9.84453 29.368 9.66572 22.6609L9.66572 22.6609C9.64901 22.0343 9.63125 21.3677 9.61168 20.6578C9.60221 20.3139 9.59231 19.9598 9.5819 19.5951C9.92839 19.7093 10.2649 19.8201 10.5917 19.9275C11.2652 20.1489 11.8978 20.3562 12.4924 20.5511L12.4957 20.5521L12.4958 20.5522C18.8716 22.6416 20.8949 23.3047 22.3488 24.6046C23.0247 25.2089 23.5775 25.9508 24.3873 27.0376C27.0295 30.5834 26.8138 35.2712 24.0003 37.8419C29.2288 44.7994 38.7155 45.248 44.7106 40.3801C48.0249 36.1386 50 30.8 50 25C50 11.1929 38.8071 0 25 0C19.8368 0 15.0391 1.56523 11.0557 4.24706C17.0994 1.96776 24.3467 3.51289 28.8154 9.05241C31.8033 7.6941 35.624 9.00198 37.6893 12.2281C39.6993 15.3678 39.6856 15.6709 39.3095 24.0009C39.28 24.6535 39.2483 25.3554 39.2152 26.1117C39.2002 26.4545 39.1849 26.8084 39.1694 27.1739C38.8306 27.0349 38.5028 26.9002 38.1857 26.7698C28.8794 22.9424 28.7471 22.7348 26.7879 19.6628C26.7213 19.5584 26.6525 19.4506 26.5813 19.3393C24.3794 15.9 24.9928 11.5613 27.9315 9.55093C22.1613 2.55759 11.6024 2.52989 5.7374 9.06307C2.15385 13.3896 0 18.9432 0 25C0 38.8071 11.1929 50 25 50ZM23.397 37.0361C25.569 34.9704 25.9264 31.254 23.9479 28.1595L20.7084 33.4449L23.397 37.0361ZM23.317 27.2753C22.7518 26.5201 22.3477 26.0004 21.9164 25.5712C21.4458 25.1028 20.9276 24.7297 20.1026 24.3276C20.0589 24.3063 20.0145 24.285 19.9693 24.2636L17.2805 28.8664L20.0634 32.5835L23.317 27.2753ZM19.0458 23.8621C17.6073 23.2804 15.5218 22.5967 12.2068 21.51L11.6318 21.3215L16.63 27.9975L19.0458 23.8621ZM10.6396 21.6647L10.6662 22.658L10.6662 22.658C10.7075 24.2019 10.742 25.4924 10.7803 26.5852L14.2996 26.5534L10.6396 21.6647ZM10.9715 29.9589C10.9075 29.3047 10.86 28.5327 10.8194 27.592L15.0486 27.5538L17.0144 30.1795L10.9715 29.9589ZM11.0967 30.9597L17.7812 31.2037L19.7447 33.8263L12.2838 33.9395C12.0867 33.65 11.9225 33.3868 11.781 33.1235C11.4668 32.5385 11.2575 31.9354 11.1081 31.0298L11.0967 30.9597ZM13.0014 34.9367L20.4301 34.824L20.415 34.7216L22.6124 37.6566C19.8564 39.4535 15.7358 38.6069 13.2814 35.3131C13.1833 35.1815 13.0901 35.0563 13.0014 34.9367ZM27.0843 18.2165C25.5332 15.2575 26.2474 11.9105 28.505 10.3703L30.4258 13.5439L27.0843 18.2165ZM30.2676 22.0888C29.0331 21.3057 28.6146 20.665 27.6466 19.1493L30.9894 14.475L33.1155 17.9878L30.2986 22.1084L30.2676 22.0888ZM37.6399 25.4633C34.4236 24.1354 32.4693 23.2963 31.1689 22.6073L33.6843 18.9277L37.6399 25.4633ZM38.3123 23.9118L38.2816 24.5923L35.7918 20.4786L38.4522 20.6435C38.4181 21.5629 38.3697 22.6366 38.3125 23.9071L38.3124 23.9091L38.3123 23.9104L38.3123 23.9118ZM38.4851 19.6364C38.5066 18.8524 38.5125 18.1985 38.4977 17.6353L33.7619 17.1246L35.1573 19.4301L38.4851 19.6364ZM38.0119 14.8138C38.2297 15.3308 38.3671 15.8679 38.4403 16.6278L33.1136 16.0534L31.6924 13.7053L37.6253 14.0365C37.7803 14.3125 37.9067 14.5638 38.0119 14.8138ZM36.9902 12.9916L31.06 12.6605L29.3871 9.89629C31.8331 8.89633 35.0341 9.93524 36.8471 12.7673C36.8964 12.8442 36.944 12.9189 36.9902 12.9916Z" fill="#23572B"/>
</svg>
