<svg width="166" height="40" viewBox="0 0 166 40" fill="none" xmlns="http://www.w3.org/2000/svg">
<path d="M21.522 0.943998C22.082 0.971998 22.614 1.042 23.118 1.154C23.65 1.266 24.154 1.42 24.63 1.616L26.52 2.372C26.604 2.428 26.674 2.484 26.73 2.54C26.786 2.568 26.842 2.61 26.898 2.666C26.982 2.722 27.038 2.792 27.066 2.876C27.122 2.932 27.234 2.932 27.402 2.876C27.43 2.876 27.444 2.89 27.444 2.918C27.584 3.114 27.752 3.268 27.948 3.38C28.172 3.492 28.326 3.66 28.41 3.884C28.494 4.108 28.578 4.304 28.662 4.472C28.774 4.64 28.858 4.836 28.914 5.06C29.054 5.536 29.04 6.04 28.872 6.572C28.732 7.076 28.508 7.608 28.2 8.168C28.06 8.42 27.878 8.658 27.654 8.882C27.458 9.106 27.29 9.344 27.15 9.596C27.094 9.708 27.038 9.82 26.982 9.932C26.926 10.044 26.828 10.156 26.688 10.268C26.464 10.492 26.226 10.716 25.974 10.94C25.75 11.136 25.498 11.304 25.218 11.444L24.966 11.612V11.738L25.386 11.528C25.414 11.556 25.428 11.584 25.428 11.612C25.288 11.668 25.134 11.738 24.966 11.822C24.826 11.906 24.686 11.99 24.546 12.074L23.58 12.494C23.72 12.578 23.874 12.578 24.042 12.494C24.21 12.41 24.364 12.396 24.504 12.452C24.336 12.592 24.182 12.676 24.042 12.704C23.902 12.732 23.762 12.774 23.622 12.83L22.95 13.04L21.816 13.46V13.88C21.648 13.936 21.48 13.978 21.312 14.006C21.144 14.034 20.962 14.076 20.766 14.132C20.598 14.188 20.416 14.258 20.22 14.342C20.052 14.426 19.884 14.496 19.716 14.552V14.678C19.856 14.622 19.982 14.58 20.094 14.552C20.234 14.524 20.402 14.482 20.598 14.426C20.178 14.622 19.786 14.79 19.422 14.93C19.058 15.07 18.694 15.182 18.33 15.266C17.91 15.35 17.49 15.462 17.07 15.602C16.65 15.714 16.23 15.826 15.81 15.938C15.782 15.938 15.74 15.966 15.684 16.022L15.81 16.274L13.374 16.946C13.234 17.002 13.094 17.044 12.954 17.072C12.842 17.072 12.73 17.044 12.618 16.988C12.562 16.96 12.492 16.946 12.408 16.946C12.324 16.918 12.226 16.96 12.114 17.072C12.058 17.128 11.96 17.156 11.82 17.156C11.596 17.1 11.358 17.114 11.106 17.198C10.854 17.254 10.588 17.31 10.308 17.366L9.132 17.66L9.51 17.786L8.838 18.248C8.922 18.332 9.006 18.374 9.09 18.374C9.174 18.374 9.412 18.346 9.804 18.29C9.748 18.402 9.692 18.458 9.636 18.458C9.58 18.458 9.51 18.458 9.426 18.458C9.286 18.486 9.16 18.5 9.048 18.5C8.964 18.5 8.852 18.5 8.712 18.5C8.572 18.724 8.614 18.808 8.838 18.752C9.09 18.668 9.356 18.626 9.636 18.626L9.426 18.752C9.146 18.808 8.95 18.892 8.838 19.004C8.726 19.088 8.6 19.256 8.46 19.508C8.432 19.564 8.418 19.592 8.418 19.592C8.474 19.76 8.446 19.928 8.334 20.096C8.222 20.264 8.124 20.418 8.04 20.558V20.642L7.914 21.23C7.886 21.342 7.83 21.454 7.746 21.566C7.662 21.65 7.648 21.748 7.704 21.86C7.704 21.944 7.69 22 7.662 22.028C7.522 22.252 7.424 22.462 7.368 22.658C7.34 22.826 7.298 23.008 7.242 23.204C7.186 23.456 7.116 23.722 7.032 24.002C6.948 24.254 6.864 24.506 6.78 24.758C6.696 25.038 6.598 25.318 6.486 25.598C6.402 25.85 6.346 26.102 6.318 26.354C6.262 26.746 6.178 27.124 6.066 27.488C5.954 27.852 5.856 28.23 5.772 28.622C5.744 28.762 5.73 28.888 5.73 29C5.758 29.084 5.758 29.182 5.73 29.294C5.674 29.574 5.534 29.742 5.31 29.798H5.268C4.932 30.19 4.582 30.4 4.218 30.428C3.882 30.484 3.546 30.568 3.21 30.68C3.042 30.736 2.874 30.778 2.706 30.806C2.51 30.862 2.328 30.918 2.16 30.974C1.992 31.03 1.824 31.072 1.656 31.1C1.46 31.156 1.278 31.212 1.11 31.268C1.026 31.268 0.97 31.254 0.942 31.226C0.858 31.226 0.802 31.212 0.774 31.184C0.102 30.932 -0.108 30.386 0.144 29.546C0.424 28.538 0.718 27.544 1.026 26.564C1.306 25.556 1.6 24.548 1.908 23.54L2.832 20.726C3.028 20.166 3.196 19.592 3.336 19.004C3.392 18.668 3.49 18.332 3.63 17.996C3.77 17.66 3.91 17.324 4.05 16.988C4.05 16.904 4.078 16.862 4.134 16.862C4.358 16.722 4.498 16.554 4.554 16.358C4.638 16.162 4.708 15.98 4.764 15.812L6.738 11.528C7.158 10.66 7.536 9.96 7.872 9.428C8.236 8.868 8.418 8.462 8.418 8.21C8.446 7.93 8.236 7.804 7.788 7.832C7.368 7.832 6.598 7.972 5.478 8.252C5.198 8.308 5.016 8.224 4.932 8C4.736 7.468 4.708 6.824 4.848 6.068C4.904 5.76 4.96 5.452 5.016 5.144C5.1 4.836 5.212 4.528 5.352 4.22C5.408 3.996 5.436 3.828 5.436 3.716C5.464 3.604 5.492 3.506 5.52 3.422C5.548 3.338 5.632 3.24 5.772 3.128C5.912 3.184 6.08 3.184 6.276 3.128C6.472 3.072 6.682 3.016 6.906 2.96C7.298 2.82 7.69 2.694 8.082 2.582C8.502 2.47 8.908 2.358 9.3 2.246C9.272 2.33 9.23 2.372 9.174 2.372C9.118 2.372 9.062 2.386 9.006 2.414C8.95 2.442 8.88 2.47 8.796 2.498C8.712 2.526 8.628 2.568 8.544 2.624H9.09C8.782 2.82 8.474 2.946 8.166 3.002C7.886 3.058 7.592 3.226 7.284 3.506C7.396 3.506 7.494 3.52 7.578 3.548C7.662 3.576 7.746 3.576 7.83 3.548L10.938 2.918C11.106 2.862 11.218 2.806 11.274 2.75C11.498 2.582 11.694 2.484 11.862 2.456C12.058 2.428 12.268 2.386 12.492 2.33L15.852 1.826C16.216 1.77 16.566 1.714 16.902 1.658C17.266 1.602 17.63 1.546 17.994 1.49C18.134 1.462 18.246 1.462 18.33 1.49C18.442 1.518 18.554 1.532 18.666 1.532H19.632C19.8 1.532 19.954 1.532 20.094 1.532C20.262 1.532 20.43 1.504 20.598 1.448C20.99 1.392 21.354 1.378 21.69 1.406C22.054 1.434 22.404 1.476 22.74 1.532L23.874 1.7C23.986 1.7 24.098 1.672 24.21 1.616L23.454 1.364C23.174 1.308 22.894 1.266 22.614 1.238C22.334 1.182 22.054 1.126 21.774 1.07C21.718 1.07 21.676 1.056 21.648 1.028C21.62 0.999998 21.578 0.971998 21.522 0.943998ZM17.994 11.906C18.414 11.766 18.834 11.626 19.254 11.486C19.674 11.346 20.108 11.192 20.556 11.024L23.244 9.932C24.056 9.568 24.77 8.994 25.386 8.21C25.526 7.986 25.638 7.79 25.722 7.622C25.834 7.426 25.848 7.244 25.764 7.076C25.54 6.516 25.162 6.18 24.63 6.068L24.588 6.026L24.798 5.858L24.252 5.774L24.588 5.564C24.448 5.536 24.294 5.536 24.126 5.564C23.986 5.564 23.832 5.578 23.664 5.606C23.524 5.634 23.37 5.648 23.202 5.648C23.062 5.648 22.936 5.62 22.824 5.564C22.992 5.564 23.16 5.564 23.328 5.564C23.496 5.536 23.706 5.438 23.958 5.27C23.734 5.242 23.538 5.228 23.37 5.228C23.202 5.2 23.034 5.186 22.866 5.186C22.67 5.158 22.474 5.158 22.278 5.186C22.082 5.186 21.886 5.186 21.69 5.186C21.27 5.158 20.808 5.2 20.304 5.312C19.856 5.424 19.408 5.522 18.96 5.606C18.54 5.69 18.12 5.774 17.7 5.858C16.944 5.998 16.37 6.124 15.978 6.236C15.586 6.32 15.278 6.46 15.054 6.656C14.83 6.852 14.62 7.118 14.424 7.454C14.256 7.762 13.99 8.196 13.626 8.756C13.43 9.12 13.248 9.484 13.08 9.848C12.912 10.184 12.73 10.52 12.534 10.856C12.03 11.472 11.61 12.13 11.274 12.83C10.966 13.502 10.812 14.062 10.812 14.51C10.84 14.93 11.092 15.168 11.568 15.224C12.044 15.28 12.856 15 14.004 14.384C14.256 14.3 14.508 14.23 14.76 14.174C15.012 14.118 15.264 13.978 15.516 13.754C15.6 13.67 15.712 13.628 15.852 13.628L17.238 13.25C17.462 13.194 17.658 13.068 17.826 12.872C17.63 12.928 17.462 12.984 17.322 13.04C17.182 13.096 17.042 13.054 16.902 12.914L17.658 12.62C17.91 12.564 18.162 12.494 18.414 12.41C18.666 12.326 18.918 12.242 19.17 12.158C19.254 12.13 19.338 12.102 19.422 12.074C19.506 12.018 19.576 11.92 19.632 11.78L18.96 11.906C18.764 11.962 18.568 12.018 18.372 12.074C18.204 12.102 18.078 12.046 17.994 11.906ZM9.636 17.114L9.72 16.988C10 17.044 10.28 17.044 10.56 16.988C10.868 16.904 11.176 16.834 11.484 16.778C11.792 16.722 12.086 16.694 12.366 16.694C12.674 16.666 13.024 16.582 13.416 16.442C13.108 16.302 12.898 16.232 12.786 16.232C12.702 16.232 12.534 16.26 12.282 16.316C11.89 16.4 11.484 16.484 11.064 16.568C10.644 16.652 10.224 16.75 9.804 16.862C9.664 16.89 9.566 16.932 9.51 16.988C9.482 17.044 9.44 17.184 9.384 17.408L10.056 17.282C10.084 17.226 10.098 17.198 10.098 17.198L9.636 17.114ZM16.314 15.308C16.426 15.28 16.566 15.266 16.734 15.266C16.902 15.266 17.07 15.252 17.238 15.224C17.434 15.168 17.63 15.07 17.826 14.93C17.322 14.846 16.818 14.972 16.314 15.308ZM16.314 15.308C16.23 15.224 16.118 15.21 15.978 15.266C15.838 15.294 15.698 15.35 15.558 15.434L16.314 15.308ZM18.414 14.678C18.33 14.678 18.232 14.678 18.12 14.678C18.036 14.678 17.952 14.748 17.868 14.888C18.008 14.86 18.19 14.79 18.414 14.678ZM13.794 16.064C13.794 16.036 13.794 16.022 13.794 16.022C13.822 16.022 13.836 16.008 13.836 15.98L13.332 16.106V16.148C13.416 16.148 13.57 16.12 13.794 16.064ZM9.846 18.29V18.248C9.818 18.276 9.804 18.29 9.804 18.29H9.846ZM39.0134 19.466C39.2934 19.438 39.3774 19.606 39.2654 19.97C39.1534 20.334 38.9574 20.782 38.6774 21.314C38.6214 21.426 38.5374 21.566 38.4254 21.734C38.3414 21.874 38.2434 22.028 38.1314 22.196C38.0194 22.364 37.9214 22.532 37.8374 22.7C37.7814 22.868 37.7534 23.008 37.7534 23.12C37.7254 23.148 37.6834 23.19 37.6274 23.246C37.5994 23.274 37.5574 23.302 37.5014 23.33C37.3614 23.47 37.2494 23.638 37.1654 23.834C37.1094 23.946 37.0534 24.03 36.9974 24.086C36.9694 24.142 36.9274 24.212 36.8714 24.296C36.5634 24.828 36.2834 25.276 36.0314 25.64C35.7794 25.976 35.4154 26.382 34.9394 26.858C34.8834 26.914 34.7154 27.068 34.4354 27.32C34.1834 27.572 33.9034 27.852 33.5954 28.16C33.2874 28.44 32.9934 28.706 32.7134 28.958C32.4614 29.21 32.3214 29.364 32.2934 29.42C31.9854 29.672 31.6494 29.84 31.2854 29.924C30.9494 30.008 30.5994 30.05 30.2354 30.05C29.8994 30.078 29.5494 30.078 29.1854 30.05C28.8494 30.022 28.5274 30.008 28.2194 30.008C27.8274 30.008 27.5334 29.952 27.3374 29.84C27.1414 29.728 26.8754 29.588 26.5394 29.42C26.2314 29.28 26.0074 29.112 25.8674 28.916C25.7834 28.692 25.6574 28.482 25.4894 28.286C25.3494 28.062 25.1954 27.852 25.0274 27.656C24.8874 27.432 24.7614 27.194 24.6494 26.942C24.5374 26.69 24.4674 26.396 24.4394 26.06C24.4114 25.892 24.3694 25.752 24.3134 25.64C24.2574 25.5 24.2154 25.346 24.1874 25.178C24.2154 24.506 24.2714 23.834 24.3554 23.162C24.4394 22.49 24.5234 21.804 24.6074 21.104C24.7474 20.628 24.8594 20.138 24.9434 19.634C25.0554 19.102 25.1534 18.598 25.2374 18.122C25.3494 17.674 25.4334 17.31 25.4894 17.03C25.5734 16.75 25.6574 16.484 25.7414 16.232C25.8534 15.98 25.9654 15.728 26.0774 15.476C26.2174 15.224 26.3854 14.888 26.5814 14.468C26.6934 14.188 26.7914 13.964 26.8754 13.796C26.9874 13.628 27.0854 13.474 27.1694 13.334C27.2814 13.194 27.3794 13.04 27.4634 12.872C27.5754 12.704 27.6874 12.48 27.7994 12.2C28.1074 11.584 28.4294 11.024 28.7654 10.52C28.9054 10.212 29.0594 9.904 29.2274 9.596C29.4234 9.288 29.6194 8.98 29.8154 8.672C30.5994 7.3 31.4674 6.096 32.4194 5.06C32.7274 4.752 33.0494 4.444 33.3854 4.136C33.7214 3.8 34.0434 3.492 34.3514 3.212C34.5474 3.072 34.7294 2.932 34.8974 2.792C35.0934 2.624 35.2894 2.512 35.4854 2.456C35.5694 2.4 35.6954 2.344 35.8634 2.288C36.1714 2.26 36.4514 2.274 36.7034 2.33C36.9554 2.386 37.1934 2.526 37.4174 2.75C37.8374 3.114 37.9774 3.702 37.8374 4.514C37.7814 4.766 37.7394 5.018 37.7114 5.27C37.6834 5.522 37.6414 5.76 37.5854 5.984C37.5574 6.18 37.5014 6.362 37.4174 6.53C37.3614 6.698 37.2774 6.894 37.1654 7.118C37.0254 7.482 36.8574 7.832 36.6614 8.168C36.4934 8.504 36.2974 8.84 36.0734 9.176L35.1494 10.814C34.8974 11.206 34.6594 11.598 34.4354 11.99C34.2114 12.354 33.9734 12.718 33.7214 13.082C33.2734 13.67 32.8534 14.272 32.4614 14.888C32.0694 15.504 31.6774 16.106 31.2854 16.694C30.9494 17.254 30.6974 17.716 30.5294 18.08C30.3614 18.444 30.2354 18.794 30.1514 19.13C30.0674 19.438 29.9834 19.774 29.8994 20.138C29.8434 20.502 29.7594 20.964 29.6474 21.524C29.5634 21.972 29.5214 22.35 29.5214 22.658C29.5494 22.966 29.5494 23.344 29.5214 23.792C29.5214 23.848 29.5354 23.988 29.5634 24.212C29.5914 24.408 29.6054 24.632 29.6054 24.884C29.6334 25.108 29.6614 25.318 29.6894 25.514C29.7174 25.71 29.7314 25.822 29.7314 25.85C29.7874 26.158 29.8434 26.396 29.8994 26.564C29.9834 26.704 30.0954 26.914 30.2354 27.194C30.2914 27.278 30.4174 27.348 30.6134 27.404C30.8374 27.46 31.0054 27.516 31.1174 27.572C31.2014 27.628 31.3694 27.6 31.6214 27.488C31.9014 27.348 32.1954 27.18 32.5034 26.984C32.8394 26.788 33.1334 26.606 33.3854 26.438C33.6654 26.242 33.8474 26.116 33.9314 26.06C34.2674 25.864 34.5754 25.626 34.8554 25.346C35.1354 25.066 35.4294 24.772 35.7374 24.464C36.0454 24.156 36.2974 23.834 36.4934 23.498C36.6894 23.162 36.9274 22.798 37.2074 22.406C37.5994 21.902 37.8934 21.426 38.0894 20.978C38.3134 20.53 38.6214 20.026 39.0134 19.466ZM30.3614 16.274C30.6694 15.798 30.9354 15.378 31.1594 15.014C31.4114 14.65 31.6774 14.23 31.9574 13.754C32.2934 13.222 32.5594 12.788 32.7554 12.452C32.9794 12.088 33.1894 11.752 33.3854 11.444C33.5814 11.108 33.7774 10.758 33.9734 10.394C34.1694 10.03 34.4214 9.554 34.7294 8.966C34.9534 8.518 35.1634 8.084 35.3594 7.664C35.5834 7.216 35.8074 6.768 36.0314 6.32C36.2274 5.76 36.3674 5.13 36.4514 4.43C36.5354 4.178 36.4934 4.094 36.3254 4.178C36.1854 4.206 36.0314 4.276 35.8634 4.388C35.3034 4.612 34.8274 5.018 34.4354 5.606C34.2954 5.774 34.1554 5.956 34.0154 6.152C33.9034 6.32 33.7634 6.488 33.5954 6.656C33.3994 6.88 33.2454 7.118 33.1334 7.37C33.0214 7.594 32.9234 7.846 32.8394 8.126L32.2094 9.47C32.0694 9.918 31.9014 10.366 31.7054 10.814C31.5094 11.234 31.2994 11.668 31.0754 12.116L30.6134 13.418C30.4734 13.782 30.3754 14.034 30.3194 14.174C30.2914 14.286 30.2494 14.398 30.1934 14.51C30.1654 14.594 30.1234 14.706 30.0674 14.846C30.0394 14.958 29.9694 15.196 29.8574 15.56C29.8294 15.644 29.8154 15.756 29.8154 15.896C29.8154 16.036 29.8294 16.162 29.8574 16.274C29.8854 16.386 29.9414 16.456 30.0254 16.484C30.1094 16.484 30.2214 16.414 30.3614 16.274ZM53.6786 19.13C53.9026 19.158 54.1406 19.298 54.3926 19.55C54.3646 19.69 54.2666 19.956 54.0986 20.348C53.9586 20.712 53.8326 20.936 53.7206 21.02C53.6646 21.048 53.6226 21.09 53.5946 21.146C53.5666 21.174 53.5246 21.202 53.4686 21.23L53.0066 21.776C52.9506 21.832 52.8946 21.888 52.8386 21.944C52.8106 21.972 52.7826 22.014 52.7546 22.07C52.6706 22.266 52.5026 22.434 52.2506 22.574C52.1386 22.63 52.0686 22.686 52.0406 22.742C51.9006 22.882 51.7606 23.022 51.6206 23.162C51.4806 23.274 51.3406 23.4 51.2006 23.54C50.9766 23.736 50.7106 23.876 50.4026 23.96C50.2066 24.016 50.0246 24.058 49.8566 24.086C49.6886 24.086 49.5206 24.114 49.3526 24.17C49.2126 24.226 49.0586 24.268 48.8906 24.296C48.7226 24.296 48.5546 24.324 48.3866 24.38H48.0086C47.7566 24.296 47.5046 24.226 47.2526 24.17C47.0286 24.086 46.8046 23.96 46.5806 23.792L46.3706 23.666C46.1746 23.582 45.9926 23.484 45.8246 23.372C45.6566 23.26 45.5026 23.12 45.3626 22.952C44.9706 23.148 44.6766 23.33 44.4806 23.498L44.0186 23.792C43.9626 23.82 43.9346 23.834 43.9346 23.834C43.7946 24.002 43.6406 24.114 43.4726 24.17C43.3326 24.226 43.1786 24.282 43.0106 24.338C42.3666 24.534 41.7926 24.492 41.2886 24.212C41.1766 24.156 41.0646 24.114 40.9526 24.086C40.8686 24.03 40.7706 23.974 40.6586 23.918C39.4546 23.414 38.7826 22.504 38.6426 21.188C38.5586 20.544 38.6706 19.914 38.9786 19.298C39.1186 19.018 39.2586 18.752 39.3986 18.5C39.5666 18.22 39.7626 17.968 39.9866 17.744C39.9866 17.716 40.0146 17.674 40.0706 17.618C40.3506 17.198 40.6446 16.792 40.9526 16.4C41.2886 16.008 41.6106 15.616 41.9186 15.224C42.3946 14.72 42.9266 14.286 43.5146 13.922C43.6266 13.866 43.7526 13.838 43.8926 13.838C44.0326 13.81 44.1586 13.796 44.2706 13.796C44.4106 13.768 44.5506 13.754 44.6906 13.754H44.8166C44.9566 13.81 45.0966 13.852 45.2366 13.88C45.4046 13.88 45.5586 13.908 45.6986 13.964C45.8106 14.02 45.8946 14.048 45.9506 14.048C46.0626 14.076 46.1466 14.104 46.2026 14.132C46.2866 14.132 46.3566 14.174 46.4126 14.258C46.4686 14.286 46.4966 14.3 46.4966 14.3C46.6086 14.3 46.7066 14.342 46.7906 14.426C46.8746 14.482 46.9726 14.51 47.0846 14.51C47.1686 14.51 47.2386 14.538 47.2946 14.594C47.4346 14.734 47.5606 14.86 47.6726 14.972C47.8126 15.084 47.9246 15.21 48.0086 15.35L48.1346 15.686C48.2186 16.05 48.0926 16.33 47.7566 16.526C47.5606 16.61 47.3786 16.708 47.2106 16.82C47.0426 16.932 46.8746 17.058 46.7066 17.198V17.24C46.4826 17.464 46.2446 17.688 45.9926 17.912C45.7406 18.136 45.5166 18.388 45.3206 18.668L44.8166 19.214C44.6206 19.438 44.4386 19.662 44.2706 19.886C44.1306 20.11 43.9766 20.334 43.8086 20.558L43.3886 21.146C43.3326 21.202 43.2766 21.286 43.2206 21.398C42.9686 21.874 42.8006 22.336 42.7166 22.784C42.7166 22.784 42.7166 22.84 42.7166 22.952L42.8846 22.826C43.3606 22.35 43.8226 21.944 44.2706 21.608C44.5506 21.384 44.7606 21.146 44.9006 20.894L45.2366 20.516C45.3766 20.376 45.5026 20.236 45.6146 20.096C45.7266 19.928 45.8386 19.76 45.9506 19.592L46.8326 18.164C47.2526 18.108 47.5606 18.206 47.7566 18.458L48.0086 18.71C48.1486 18.906 48.2326 19.102 48.2606 19.298C48.3166 19.494 48.3586 19.704 48.3866 19.928C48.3866 19.956 48.3586 20.026 48.3026 20.138L47.7146 21.314C47.5746 21.622 47.5326 21.916 47.5886 22.196C47.6726 22.588 47.7986 22.938 47.9666 23.246C48.0506 23.386 48.1766 23.456 48.3446 23.456C48.4846 23.428 48.6246 23.4 48.7646 23.372C48.9326 23.344 49.0866 23.302 49.2266 23.246C49.3666 23.19 49.4926 23.134 49.6046 23.078C49.7446 22.994 49.8846 22.91 50.0246 22.826L50.9486 22.28L51.6206 21.692C51.9006 21.412 52.2226 21.006 52.5866 20.474C52.9506 19.914 53.2726 19.494 53.5526 19.214L53.6786 19.13ZM62.3171 18.374C62.2051 18.542 62.0791 18.71 61.9391 18.878C61.7991 19.018 61.6591 19.158 61.5191 19.298C61.2391 19.606 60.9311 19.928 60.5951 20.264C60.2871 20.572 60.0211 20.894 59.7971 21.23C59.6011 21.482 59.3911 21.734 59.1671 21.986C58.9431 22.238 58.7191 22.476 58.4951 22.7C58.2151 22.98 57.9771 23.302 57.7811 23.666C57.6691 23.834 57.5711 23.988 57.4871 24.128C57.4031 24.268 57.3051 24.394 57.1931 24.506C57.0251 24.646 56.9131 24.786 56.8571 24.926C56.7451 25.038 56.6191 25.262 56.4791 25.598C56.3671 25.934 56.2411 26.298 56.1011 26.69C55.9891 27.082 55.8771 27.446 55.7651 27.782C55.6531 28.118 55.5551 28.342 55.4711 28.454C55.3031 28.622 55.1211 28.706 54.9251 28.706C54.8131 28.706 54.6171 28.776 54.3371 28.916C54.2251 29 54.0991 29.042 53.9591 29.042C53.8191 29.07 53.7211 29.07 53.6651 29.042C53.4411 28.986 53.2171 28.958 52.9931 28.958C52.7411 28.958 52.5031 28.944 52.2791 28.916C52.1391 28.86 51.9991 28.832 51.8591 28.832C51.7191 28.832 51.5791 28.818 51.4391 28.79C51.1311 28.678 50.8931 28.468 50.7251 28.16C50.5571 27.852 50.5151 27.474 50.5991 27.026C50.7671 26.27 50.9491 25.514 51.1451 24.758C51.3131 23.974 51.5511 23.19 51.8591 22.406C51.9991 22.014 52.1531 21.636 52.3211 21.272C52.4611 20.88 52.6291 20.488 52.8251 20.096C53.2451 19.06 53.7071 18.01 54.2111 16.946C54.4351 16.498 54.6731 16.064 54.9251 15.644C55.2051 15.196 55.4571 14.776 55.6811 14.384C55.8211 14.132 55.9611 13.88 56.1011 13.628C56.2411 13.376 56.3671 13.124 56.4791 12.872C56.7031 12.452 56.8571 12.074 56.9411 11.738C56.9411 11.682 56.9411 11.64 56.9411 11.612C56.9691 11.556 56.9831 11.5 56.9831 11.444C57.2071 11.304 57.3751 11.318 57.4871 11.486C57.7671 11.878 58.1451 12.13 58.6211 12.242C58.6771 12.242 58.7471 12.312 58.8311 12.452L59.4611 13.292C59.5731 13.46 59.6291 13.656 59.6291 13.88C59.6571 14.076 59.6571 14.286 59.6291 14.51C59.6011 15.294 59.4751 16.078 59.2511 16.862C59.0271 17.618 58.7191 18.402 58.3271 19.214C58.2431 19.382 58.1871 19.522 58.1591 19.634C58.1311 19.718 58.1031 19.802 58.0751 19.886C58.0471 19.942 58.0051 20.012 57.9491 20.096C57.8931 20.18 57.8091 20.306 57.6971 20.474C57.4171 20.922 57.3331 21.258 57.4451 21.482C57.5851 21.706 57.7951 21.748 58.0751 21.608C58.2711 21.412 58.4391 21.258 58.5791 21.146C58.7191 21.006 58.8451 20.88 58.9571 20.768C59.0691 20.628 59.1811 20.488 59.2931 20.348C59.4331 20.18 59.6011 19.984 59.7971 19.76C60.0491 19.48 60.2591 19.242 60.4271 19.046C60.6231 18.822 60.8051 18.626 60.9731 18.458C61.1691 18.29 61.3511 18.122 61.5191 17.954C61.7151 17.758 61.9251 17.534 62.1491 17.282L62.9471 16.442C63.1431 16.106 63.4371 15.896 63.8291 15.812H64.2491C64.5291 15.868 64.7951 15.896 65.0471 15.896C65.2991 15.868 65.5511 15.882 65.8031 15.938C66.1111 15.994 66.3631 16.204 66.5591 16.568C66.6711 16.764 66.7271 16.974 66.7271 17.198C66.7831 17.506 66.8111 17.8 66.8111 18.08C66.8391 18.332 66.8111 18.612 66.7271 18.92C66.6431 19.312 66.5731 19.662 66.5171 19.97C66.4611 20.25 66.3771 20.586 66.2651 20.978C66.2091 21.202 66.1531 21.482 66.0971 21.818C66.0691 22.126 66.0411 22.448 66.0131 22.784C65.9851 23.12 65.9711 23.442 65.9711 23.75C65.9711 24.03 65.9851 24.268 66.0131 24.464C66.0411 24.716 66.1251 24.898 66.2651 25.01C66.4331 25.094 66.6151 25.15 66.8111 25.178C67.0351 25.178 67.2451 25.164 67.4411 25.136C67.6371 25.08 67.7911 25.024 67.9031 24.968C68.0151 24.912 68.1131 24.87 68.1971 24.842C68.2811 24.786 68.3931 24.73 68.5331 24.674C68.7291 24.562 68.9671 24.394 69.2471 24.17C69.5551 23.946 69.8631 23.708 70.1711 23.456C70.4791 23.204 70.7731 22.952 71.0531 22.7C71.3331 22.448 71.5431 22.224 71.6831 22.028C71.7111 22 71.7951 21.93 71.9351 21.818C72.1031 21.678 72.2711 21.538 72.4391 21.398C72.6351 21.23 72.8031 21.09 72.9431 20.978C73.1111 20.838 73.2231 20.74 73.2791 20.684C73.4471 20.432 73.5591 20.222 73.6151 20.054C73.6711 19.858 73.7831 19.648 73.9511 19.424C74.0071 19.368 74.0351 19.312 74.0351 19.256C74.0631 19.2 74.1191 19.13 74.2031 19.046C74.2031 19.158 74.2171 19.228 74.2451 19.256C74.2731 19.396 74.2731 19.508 74.2451 19.592C74.2171 19.676 74.2171 19.788 74.2451 19.928C74.2451 20.068 74.2451 20.11 74.2451 20.054C74.2451 19.998 74.2171 20.04 74.1611 20.18C74.0491 20.32 73.9931 20.502 73.9931 20.726C73.9371 20.95 73.8531 21.16 73.7411 21.356C73.5451 21.636 73.3491 21.958 73.1531 22.322C72.9571 22.686 72.7611 22.98 72.5651 23.204C72.4811 23.288 72.3271 23.456 72.1031 23.708C71.8791 23.96 71.6411 24.226 71.3891 24.506C71.1371 24.758 70.8991 25.01 70.6751 25.262C70.4511 25.486 70.2971 25.64 70.2131 25.724C70.1291 25.808 70.0311 25.878 69.9191 25.934C69.8071 25.99 69.6951 26.046 69.5831 26.102L69.0791 26.27C68.9391 26.326 68.7011 26.382 68.3651 26.438C68.0571 26.466 67.7211 26.494 67.3571 26.522C66.9931 26.522 66.6431 26.508 66.3071 26.48C65.9711 26.452 65.7191 26.41 65.5511 26.354C63.7591 25.766 62.8491 24.282 62.8211 21.902C62.8491 21.622 62.8631 21.356 62.8631 21.104C62.8911 20.852 62.9051 20.586 62.9051 20.306C62.9331 20.082 62.9611 19.816 62.9891 19.508C63.0451 19.172 63.0591 18.892 63.0311 18.668C63.0031 18.416 62.9331 18.248 62.8211 18.164C62.7091 18.052 62.5411 18.122 62.3171 18.374ZM85.7659 19.298C85.8779 19.326 85.9899 19.326 86.1019 19.298C86.2139 19.242 86.2559 19.242 86.2279 19.298C86.2279 19.438 86.1999 19.522 86.1439 19.55C86.1159 19.578 86.1159 19.648 86.1439 19.76C86.1439 19.816 86.1159 19.914 86.0599 20.054C86.0319 20.194 85.9899 20.362 85.9339 20.558C85.8779 20.726 85.8219 20.894 85.7659 21.062C85.7099 21.202 85.6679 21.286 85.6399 21.314L84.8419 23.33L83.7079 25.472C83.6519 25.556 83.5119 25.752 83.2879 26.06C83.0639 26.34 82.8119 26.662 82.5319 27.026C82.2799 27.362 82.0279 27.684 81.7759 27.992C81.5519 28.272 81.4119 28.426 81.3559 28.454C81.0759 28.65 80.7399 28.958 80.3479 29.378C79.9559 29.798 79.6339 30.092 79.3819 30.26C79.2979 30.316 79.1579 30.372 78.9619 30.428C78.7939 30.512 78.6119 30.596 78.4159 30.68C78.2199 30.764 78.0379 30.834 77.8699 30.89C77.7019 30.946 77.5759 30.974 77.4919 30.974C77.2119 31.002 76.9319 31.016 76.6519 31.016C76.3719 31.016 76.1059 30.988 75.8539 30.932C75.6299 30.904 75.3919 30.806 75.1399 30.638C74.8879 30.47 74.6359 30.274 74.3839 30.05C74.1319 29.826 73.9079 29.588 73.7119 29.336C73.5159 29.112 73.3619 28.888 73.2499 28.664C73.1379 28.468 73.0259 28.286 72.9139 28.118C72.8019 27.95 72.7179 27.754 72.6619 27.53C72.5779 27.25 72.5079 26.914 72.4519 26.522C72.3959 26.13 72.3539 25.78 72.3259 25.472C72.3259 24.604 72.3539 23.89 72.4099 23.33C72.4659 22.742 72.5499 22.21 72.6619 21.734C72.7739 21.23 72.9279 20.698 73.1239 20.138C73.2919 19.578 73.5019 18.878 73.7539 18.038L73.9639 17.198C73.9919 17.058 74.0199 16.918 74.0479 16.778C74.1039 16.638 74.1599 16.498 74.2159 16.358L74.5939 15.014C74.6499 14.79 74.7339 14.538 74.8459 14.258C74.9859 13.95 75.0979 13.656 75.1819 13.376C75.2659 13.096 75.2939 12.858 75.2659 12.662C75.2659 12.466 75.1399 12.34 74.8879 12.284C74.7479 12.256 74.6079 12.242 74.4679 12.242C74.3559 12.242 74.2299 12.186 74.0899 12.074L73.3339 11.612C73.2779 11.556 73.2359 11.514 73.2079 11.486C73.1519 11.43 73.1099 11.346 73.0819 11.234C73.1939 11.178 73.2639 11.15 73.2919 11.15L75.0139 10.772C75.2099 10.716 75.4059 10.688 75.6019 10.688C75.7979 10.66 76.0079 10.632 76.2319 10.604C76.4559 10.548 76.5959 10.436 76.6519 10.268C76.7079 10.1 76.7779 9.946 76.8619 9.806C76.9459 9.638 77.0159 9.456 77.0719 9.26C77.2959 8.868 77.4919 8.476 77.6599 8.084C77.8279 7.664 78.0239 7.258 78.2479 6.866C78.4719 6.53 78.6819 6.222 78.8779 5.942C79.1019 5.634 79.3539 5.354 79.6339 5.102L79.9279 4.766C80.1239 4.626 80.3059 4.57 80.4739 4.598C80.6139 4.654 80.7399 4.668 80.8519 4.64C80.9919 4.584 81.1319 4.556 81.2719 4.556C81.2999 4.556 81.3279 4.542 81.3559 4.514C81.6639 4.458 81.8739 4.486 81.9859 4.598C82.1259 4.71 82.2379 4.878 82.3219 5.102C82.5179 5.494 82.6159 5.942 82.6159 6.446C82.6159 6.586 82.6159 6.712 82.6159 6.824C82.6439 6.908 82.6719 7.006 82.6999 7.118C82.7559 7.286 82.7559 7.482 82.6999 7.706L82.5739 8.378L82.3219 9.386C82.3219 9.526 82.3079 9.638 82.2799 9.722C82.3639 9.778 82.5039 9.806 82.6999 9.806L84.2539 9.68H86.4379C86.5779 9.68 86.7039 9.694 86.8159 9.722C86.9559 9.75 87.0959 9.778 87.2359 9.806L87.0679 10.058L86.7739 10.268L85.8499 10.688C85.8219 10.716 85.8079 10.73 85.8079 10.73C85.5839 10.758 85.3459 10.814 85.0939 10.898C84.8419 10.954 84.5899 10.968 84.3379 10.94C84.0299 10.94 83.7359 10.982 83.4559 11.066C83.3719 11.122 83.2739 11.15 83.1619 11.15C83.0779 11.15 82.9939 11.164 82.9099 11.192L81.9439 11.318C81.8039 11.346 81.6919 11.458 81.6079 11.654L81.5239 11.78C81.2719 12.508 80.9919 13.208 80.6839 13.88C80.3759 14.552 80.0819 15.238 79.8019 15.938L79.5919 16.4C79.4799 16.624 79.3819 16.834 79.2979 17.03C79.2139 17.226 79.1439 17.436 79.0879 17.66C79.0319 17.856 78.9479 18.052 78.8359 18.248C78.7519 18.416 78.6539 18.584 78.5419 18.752C78.4579 18.892 78.4019 19.06 78.3739 19.256C78.3739 19.424 78.3179 19.578 78.2059 19.718C78.0939 19.97 77.9679 20.348 77.8279 20.852C77.7159 21.328 77.6179 21.86 77.5339 22.448C77.4499 23.008 77.3799 23.568 77.3239 24.128C77.2679 24.688 77.2539 25.164 77.2819 25.556C77.3099 25.892 77.3519 26.228 77.4079 26.564C77.4919 26.872 77.5899 27.18 77.7019 27.488C77.7579 27.6 77.8139 27.698 77.8699 27.782C77.9539 27.838 78.0239 27.908 78.0799 27.992C78.1079 27.992 78.1219 28.006 78.1219 28.034C78.1499 28.034 78.1919 28.034 78.2479 28.034C78.4439 28.034 78.6959 28.034 79.0039 28.034C79.3119 28.034 79.5639 27.964 79.7599 27.824C79.8159 27.796 79.9279 27.712 80.0959 27.572C80.2639 27.432 80.4459 27.292 80.6419 27.152C80.8379 27.012 81.0199 26.872 81.1879 26.732C81.3559 26.592 81.4679 26.494 81.5239 26.438C81.6919 26.27 81.8879 26.06 82.1119 25.808C82.3639 25.556 82.6019 25.29 82.8259 25.01C83.0779 24.73 83.3019 24.45 83.4979 24.17C83.7219 23.89 83.8899 23.638 84.0019 23.414C84.1979 23.05 84.3519 22.658 84.4639 22.238C84.6039 21.818 84.7719 21.44 84.9679 21.104L85.7659 19.298ZM80.7679 9.554L81.0199 8.252L81.1459 7.664L81.3139 6.656C81.3419 6.46 81.3419 6.278 81.3139 6.11C81.3139 5.914 81.2999 5.718 81.2719 5.522C81.2159 5.326 81.1319 5.284 81.0199 5.396C80.8239 5.536 80.6979 5.676 80.6419 5.816C80.5579 5.984 80.4739 6.166 80.3899 6.362C80.3339 6.53 80.2779 6.712 80.2219 6.908L80.0539 7.286L79.8019 7.832C79.7459 8.056 79.6899 8.28 79.6339 8.504C79.6059 8.728 79.5639 8.952 79.5079 9.176C79.4519 9.456 79.4799 9.666 79.5919 9.806C79.7039 9.946 79.8299 10.03 79.9699 10.058C80.1379 10.086 80.2919 10.058 80.4319 9.974C80.5999 9.89 80.7119 9.75 80.7679 9.554ZM78.8779 15.056C79.0179 14.664 79.1439 14.342 79.2559 14.09C79.3679 13.81 79.5219 13.474 79.7179 13.082C79.8299 12.83 79.9139 12.592 79.9699 12.368C80.0259 12.144 80.0259 11.976 79.9699 11.864C79.9419 11.752 79.8299 11.71 79.6339 11.738C79.4659 11.738 79.2139 11.85 78.8779 12.074C78.6539 12.774 78.4719 13.404 78.3319 13.964C78.2199 14.496 78.0659 15.084 77.8699 15.728C77.6459 16.596 77.5339 17.128 77.5339 17.324C77.5619 17.492 77.6459 17.478 77.7859 17.282C77.9539 17.086 78.1359 16.764 78.3319 16.316C78.5559 15.868 78.7379 15.448 78.8779 15.056ZM101.736 15.098C102.072 15.322 102.408 15.56 102.744 15.812C103.08 16.036 103.402 16.274 103.71 16.526C103.878 16.638 104.004 16.708 104.088 16.736C104.564 16.988 104.998 17.282 105.39 17.618C105.81 17.926 106.216 18.248 106.608 18.584C107.756 19.62 108.54 20.922 108.96 22.49C109.1 23.05 109.114 23.624 109.002 24.212C108.918 24.8 108.694 25.416 108.33 26.06C108.218 26.284 108.092 26.508 107.952 26.732C107.84 26.928 107.7 27.124 107.532 27.32C107.476 27.404 107.392 27.502 107.28 27.614C107.196 27.726 107.098 27.824 106.986 27.908C106.594 28.3 106.174 28.622 105.726 28.874C105.278 29.126 104.816 29.35 104.34 29.546C104.116 29.686 103.878 29.77 103.626 29.798C103.374 29.826 103.136 29.826 102.912 29.798C102.716 29.798 102.534 29.812 102.366 29.84C102.198 29.868 102.016 29.938 101.82 30.05C101.652 30.134 101.484 30.204 101.316 30.26C101.176 30.316 101.008 30.372 100.812 30.428C99.9444 30.624 99.1464 30.666 98.4184 30.554C97.8584 30.47 97.3124 30.33 96.7804 30.134C96.2764 29.966 95.8424 29.686 95.4784 29.294C94.8344 28.594 94.6944 27.684 95.0584 26.564C95.1984 26.2 95.3664 25.85 95.5624 25.514C95.7584 25.15 95.9964 24.786 96.2764 24.422C96.5004 24.086 96.7524 23.764 97.0324 23.456C97.3124 23.12 97.6204 22.798 97.9564 22.49C98.0124 22.434 98.0544 22.378 98.0824 22.322C98.1384 22.238 98.1944 22.168 98.2504 22.112C98.4184 21.804 98.5724 21.608 98.7124 21.524C98.8524 21.412 99.0764 21.384 99.3844 21.44C99.5244 21.384 99.6364 21.3 99.7204 21.188C99.8324 21.076 99.9724 21.048 100.14 21.104L99.5944 21.398C99.7064 21.426 99.7904 21.454 99.8464 21.482C99.9024 21.482 99.9584 21.482 100.014 21.482C100.014 21.734 100.028 21.93 100.056 22.07C100.084 22.182 100.042 22.322 99.9304 22.49L99.1744 23.54C98.9504 23.82 98.7684 24.1 98.6284 24.38C98.5164 24.632 98.4324 24.912 98.3764 25.22C98.3204 25.416 98.2924 25.598 98.2924 25.766C98.2924 25.934 98.2784 26.13 98.2504 26.354C98.1944 26.662 98.3204 26.858 98.6284 26.942C98.9924 27.082 99.3844 27.11 99.8044 27.026C100.196 26.97 100.574 26.9 100.938 26.816C101.33 26.704 101.722 26.564 102.114 26.396C102.506 26.228 102.884 26.074 103.248 25.934C103.64 25.766 104.032 25.584 104.424 25.388C104.704 25.248 104.984 25.094 105.264 24.926C105.544 24.758 105.81 24.562 106.062 24.338C106.454 24.03 106.58 23.736 106.44 23.456C106.3 22.98 106.118 22.532 105.894 22.112C105.67 21.692 105.362 21.328 104.97 21.02C104.326 20.488 103.626 19.998 102.87 19.55C102.142 19.074 101.4 18.612 100.644 18.164C99.7204 17.604 98.8664 17.002 98.0824 16.358C97.6064 15.994 97.2004 15.588 96.8644 15.14C96.5284 14.692 96.2344 14.23 95.9824 13.754C95.7304 13.362 95.6044 12.942 95.6044 12.494C95.5764 12.018 95.6324 11.542 95.7724 11.066C95.8844 10.59 96.0664 10.128 96.3184 9.68C96.5984 9.204 96.9064 8.756 97.2424 8.336C97.8584 7.58 98.5584 6.936 99.3424 6.404C100.126 5.872 100.938 5.368 101.778 4.892C102.03 4.78 102.282 4.696 102.534 4.64C102.786 4.556 103.024 4.458 103.248 4.346C104.536 3.87 105.768 3.59 106.944 3.506C108.148 3.422 109.338 3.422 110.514 3.506L112.614 3.8C113.006 3.856 113.37 3.926 113.706 4.01C114.042 4.094 114.35 4.248 114.63 4.472C114.742 4.556 114.812 4.654 114.84 4.766C114.896 4.85 114.896 4.976 114.84 5.144C114.812 5.2 114.798 5.298 114.798 5.438C114.77 5.55 114.756 5.662 114.756 5.774C114.756 5.858 114.728 5.956 114.672 6.068C114.504 6.432 114.364 6.796 114.252 7.16C114.14 7.496 114.07 7.846 114.042 8.21C114.014 8.35 113.958 8.518 113.874 8.714C113.79 8.91 113.692 9.092 113.58 9.26C113.496 9.428 113.398 9.582 113.286 9.722C113.174 9.862 113.076 10.002 112.992 10.142C112.824 10.422 112.6 10.646 112.32 10.814C112.096 10.926 111.872 11.038 111.648 11.15C111.452 11.234 111.242 11.304 111.018 11.36C110.738 11.5 110.514 11.5 110.346 11.36C110.038 11.22 109.716 11.122 109.38 11.066C109.044 11.01 108.708 10.954 108.372 10.898C107.7 10.814 107.014 10.73 106.314 10.646C105.642 10.562 104.942 10.534 104.214 10.562C103.99 10.59 103.766 10.618 103.542 10.646C103.346 10.674 103.136 10.716 102.912 10.772L101.484 11.066C100.728 11.262 100.238 11.528 100.014 11.864C99.8184 12.2 99.7764 12.564 99.8884 12.956C100.028 13.348 100.266 13.74 100.602 14.132C100.966 14.496 101.344 14.818 101.736 15.098ZM118.089 24.002C118.145 23.89 118.243 23.806 118.383 23.75C118.691 23.442 118.971 23.12 119.223 22.784C119.475 22.448 119.713 22.098 119.937 21.734C120.357 21.006 120.777 20.292 121.197 19.592C121.645 18.892 122.093 18.178 122.541 17.45C122.681 17.226 122.807 17.03 122.919 16.862C123.059 16.666 123.171 16.47 123.255 16.274C123.535 16.162 123.759 16.134 123.927 16.19C124.095 16.218 124.263 16.274 124.431 16.358C124.515 16.414 124.543 16.47 124.515 16.526C124.515 16.554 124.501 16.596 124.473 16.652C124.473 16.68 124.473 16.708 124.473 16.736C124.361 17.184 124.403 17.576 124.599 17.912C124.739 18.052 124.781 18.22 124.725 18.416C124.613 18.724 124.543 19.046 124.515 19.382C124.515 19.718 124.515 20.04 124.515 20.348C124.515 20.628 124.501 20.922 124.473 21.23C124.473 21.51 124.487 21.776 124.515 22.028C124.515 22.56 124.557 23.12 124.641 23.708C124.641 23.848 124.739 24.002 124.935 24.17L125.103 23.834C125.411 23.358 125.677 22.868 125.901 22.364C126.153 21.832 126.377 21.328 126.573 20.852C126.769 20.404 126.951 19.97 127.119 19.55C127.315 19.102 127.497 18.654 127.665 18.206C127.861 17.814 128.001 17.394 128.085 16.946C128.225 16.638 128.323 16.33 128.379 16.022C128.463 15.686 128.561 15.364 128.673 15.056C128.785 14.72 128.855 14.398 128.883 14.09C128.939 13.754 128.995 13.418 129.051 13.082C129.051 12.942 129.051 12.802 129.051 12.662C129.079 12.494 129.149 12.34 129.261 12.2C129.317 12.088 129.317 11.92 129.261 11.696C129.233 11.612 129.219 11.514 129.219 11.402C129.219 11.262 129.247 11.15 129.303 11.066C129.359 10.954 129.429 10.884 129.513 10.856C129.625 10.828 129.709 10.828 129.765 10.856C129.849 10.94 129.947 11.01 130.059 11.066C130.171 11.122 130.283 11.206 130.395 11.318C130.479 11.318 130.521 11.388 130.521 11.528L130.647 12.578C130.647 12.606 130.633 12.648 130.605 12.704C130.605 12.76 130.619 12.788 130.647 12.788C130.703 12.984 130.801 13.208 130.941 13.46C130.941 13.572 130.941 13.698 130.941 13.838C130.941 13.95 130.983 14.076 131.067 14.216C131.207 14.524 131.235 14.874 131.151 15.266C131.039 15.658 130.941 16.05 130.857 16.442C130.773 16.834 130.661 17.254 130.521 17.702C130.465 17.898 130.395 18.094 130.311 18.29C130.227 18.486 130.157 18.696 130.101 18.92C130.073 19.088 130.017 19.242 129.933 19.382C129.877 19.522 129.835 19.676 129.807 19.844C129.751 20.152 129.653 20.474 129.513 20.81C129.401 21.118 129.275 21.44 129.135 21.776C129.079 21.832 129.023 21.944 128.967 22.112C128.827 22.364 128.715 22.616 128.631 22.868C128.547 23.12 128.435 23.4 128.295 23.708C128.295 23.736 128.281 23.764 128.253 23.792C128.225 23.82 128.211 23.848 128.211 23.876C127.987 24.184 127.763 24.464 127.539 24.716C127.343 24.94 127.133 25.178 126.909 25.43C126.741 25.626 126.587 25.71 126.447 25.682C126.167 25.682 125.929 25.724 125.733 25.808C125.481 25.948 125.243 26.018 125.019 26.018C124.823 25.99 124.627 25.934 124.431 25.85L123.591 25.64C123.395 25.584 123.227 25.514 123.087 25.43C122.975 25.318 122.849 25.206 122.709 25.094C122.541 24.898 122.373 24.688 122.205 24.464C122.065 24.24 121.939 24.016 121.827 23.792C121.799 23.652 121.757 23.54 121.701 23.456C121.673 23.344 121.645 23.232 121.617 23.12C121.561 22.952 121.533 22.868 121.533 22.868C121.477 22.896 121.435 22.91 121.407 22.91C121.379 22.91 121.351 22.924 121.323 22.952C121.239 23.036 121.183 23.148 121.155 23.288C121.015 23.512 120.833 23.75 120.609 24.002C120.413 24.226 120.245 24.478 120.105 24.758C119.853 24.954 119.671 25.192 119.559 25.472C119.447 25.752 119.223 25.99 118.887 26.186C118.747 26.242 118.621 26.312 118.509 26.396C118.397 26.48 118.257 26.55 118.089 26.606C117.977 26.69 117.851 26.746 117.711 26.774C117.571 26.802 117.431 26.844 117.291 26.9C116.983 27.012 116.675 27.096 116.367 27.152C116.115 27.236 115.835 27.278 115.527 27.278C115.023 27.222 114.561 27.068 114.141 26.816C114.029 26.76 113.917 26.69 113.805 26.606C113.693 26.494 113.609 26.396 113.553 26.312C113.413 26.06 113.287 25.822 113.175 25.598C113.063 25.374 112.979 25.108 112.923 24.8C112.923 24.744 112.909 24.702 112.881 24.674C112.881 24.618 112.881 24.562 112.881 24.506C112.853 24.394 112.853 24.31 112.881 24.254C112.881 24.17 112.881 24.072 112.881 23.96C112.769 23.54 112.741 23.092 112.797 22.616C112.825 22.14 112.867 21.65 112.923 21.146C113.063 20.166 113.301 19.2 113.637 18.248L114.393 16.022C114.645 15.546 114.841 15.098 114.981 14.678L115.947 12.242C116.059 12.018 116.171 11.822 116.283 11.654C116.395 11.458 116.521 11.262 116.661 11.066C116.717 10.926 116.773 10.814 116.829 10.73C116.913 10.618 117.011 10.506 117.123 10.394C117.319 10.366 117.487 10.352 117.627 10.352C117.767 10.324 117.907 10.31 118.047 10.31C118.131 10.282 118.215 10.268 118.299 10.268C119.363 10.408 120.231 10.772 120.903 11.36C120.987 11.416 121.057 11.514 121.113 11.654C121.197 11.766 121.267 11.892 121.323 12.032C121.379 12.144 121.379 12.382 121.323 12.746C121.183 13.194 121.029 13.642 120.861 14.09C120.693 14.538 120.539 14.986 120.399 15.434C120.231 15.826 120.049 16.218 119.853 16.61C119.685 17.002 119.531 17.38 119.391 17.744L118.761 19.382L118.593 19.718C118.369 20.082 118.229 20.446 118.173 20.81C118.145 21.146 118.075 21.496 117.963 21.86C117.991 22.168 117.977 22.476 117.921 22.784C117.893 23.092 117.907 23.4 117.963 23.708C117.963 23.764 117.977 23.82 118.005 23.876C118.033 23.904 118.061 23.946 118.089 24.002ZM148.384 19.13C148.608 19.158 148.846 19.298 149.098 19.55C149.07 19.69 148.972 19.956 148.804 20.348C148.664 20.712 148.538 20.936 148.426 21.02C148.37 21.048 148.328 21.09 148.3 21.146C148.272 21.174 148.23 21.202 148.174 21.23L147.712 21.776C147.656 21.832 147.6 21.888 147.544 21.944C147.516 21.972 147.488 22.014 147.46 22.07C147.376 22.266 147.208 22.434 146.956 22.574C146.844 22.63 146.774 22.686 146.746 22.742C146.606 22.882 146.466 23.022 146.326 23.162C146.186 23.274 146.046 23.4 145.906 23.54C145.682 23.736 145.416 23.876 145.108 23.96C144.912 24.016 144.73 24.058 144.562 24.086C144.394 24.086 144.226 24.114 144.058 24.17C143.918 24.226 143.764 24.268 143.596 24.296C143.428 24.296 143.26 24.324 143.092 24.38H142.714C142.462 24.296 142.21 24.226 141.958 24.17C141.734 24.086 141.51 23.96 141.286 23.792L141.076 23.666C140.88 23.582 140.698 23.484 140.53 23.372C140.362 23.26 140.208 23.12 140.068 22.952C139.676 23.148 139.382 23.33 139.186 23.498L138.724 23.792C138.668 23.82 138.64 23.834 138.64 23.834C138.5 24.002 138.346 24.114 138.178 24.17C138.038 24.226 137.884 24.282 137.716 24.338C137.072 24.534 136.498 24.492 135.994 24.212C135.882 24.156 135.77 24.114 135.658 24.086C135.574 24.03 135.476 23.974 135.364 23.918C134.16 23.414 133.488 22.504 133.348 21.188C133.264 20.544 133.376 19.914 133.684 19.298C133.824 19.018 133.964 18.752 134.104 18.5C134.272 18.22 134.468 17.968 134.692 17.744C134.692 17.716 134.72 17.674 134.776 17.618C135.056 17.198 135.35 16.792 135.658 16.4C135.994 16.008 136.316 15.616 136.624 15.224C137.1 14.72 137.632 14.286 138.22 13.922C138.332 13.866 138.458 13.838 138.598 13.838C138.738 13.81 138.864 13.796 138.976 13.796C139.116 13.768 139.256 13.754 139.396 13.754H139.522C139.662 13.81 139.802 13.852 139.942 13.88C140.11 13.88 140.264 13.908 140.404 13.964C140.516 14.02 140.6 14.048 140.656 14.048C140.768 14.076 140.852 14.104 140.908 14.132C140.992 14.132 141.062 14.174 141.118 14.258C141.174 14.286 141.202 14.3 141.202 14.3C141.314 14.3 141.412 14.342 141.496 14.426C141.58 14.482 141.678 14.51 141.79 14.51C141.874 14.51 141.944 14.538 142 14.594C142.14 14.734 142.266 14.86 142.378 14.972C142.518 15.084 142.63 15.21 142.714 15.35L142.84 15.686C142.924 16.05 142.798 16.33 142.462 16.526C142.266 16.61 142.084 16.708 141.916 16.82C141.748 16.932 141.58 17.058 141.412 17.198V17.24C141.188 17.464 140.95 17.688 140.698 17.912C140.446 18.136 140.222 18.388 140.026 18.668L139.522 19.214C139.326 19.438 139.144 19.662 138.976 19.886C138.836 20.11 138.682 20.334 138.514 20.558L138.094 21.146C138.038 21.202 137.982 21.286 137.926 21.398C137.674 21.874 137.506 22.336 137.422 22.784C137.422 22.784 137.422 22.84 137.422 22.952L137.59 22.826C138.066 22.35 138.528 21.944 138.976 21.608C139.256 21.384 139.466 21.146 139.606 20.894L139.942 20.516C140.082 20.376 140.208 20.236 140.32 20.096C140.432 19.928 140.544 19.76 140.656 19.592L141.538 18.164C141.958 18.108 142.266 18.206 142.462 18.458L142.714 18.71C142.854 18.906 142.938 19.102 142.966 19.298C143.022 19.494 143.064 19.704 143.092 19.928C143.092 19.956 143.064 20.026 143.008 20.138L142.42 21.314C142.28 21.622 142.238 21.916 142.294 22.196C142.378 22.588 142.504 22.938 142.672 23.246C142.756 23.386 142.882 23.456 143.05 23.456C143.19 23.428 143.33 23.4 143.47 23.372C143.638 23.344 143.792 23.302 143.932 23.246C144.072 23.19 144.198 23.134 144.31 23.078C144.45 22.994 144.59 22.91 144.73 22.826L145.654 22.28L146.326 21.692C146.606 21.412 146.928 21.006 147.292 20.474C147.656 19.914 147.978 19.494 148.258 19.214L148.384 19.13ZM156.728 23.624C156.504 23.736 156.294 23.806 156.098 23.834C155.902 23.834 155.706 23.904 155.51 24.044C155.23 24.184 155.09 24.492 155.09 24.968C155.146 25.22 155.244 25.346 155.384 25.346C155.44 25.29 155.482 25.262 155.51 25.262C155.566 25.262 155.622 25.234 155.678 25.178C155.93 25.038 156.112 24.87 156.224 24.674C156.448 24.366 156.602 24.086 156.686 23.834C156.77 23.554 156.784 23.484 156.728 23.624ZM160.424 20.726C160.424 20.978 160.452 21.16 160.508 21.272C160.564 21.384 160.662 21.44 160.802 21.44C160.97 21.44 161.166 21.412 161.39 21.356C161.642 21.272 161.964 21.202 162.356 21.146C162.608 21.09 162.902 21.006 163.238 20.894C163.602 20.754 163.98 20.488 164.372 20.096C164.568 19.9 164.764 19.872 164.96 20.012C165.156 20.152 165.31 20.278 165.422 20.39C165.422 20.446 165.394 20.53 165.338 20.642C165.282 20.726 165.212 20.838 165.128 20.978C165.072 21.09 165.002 21.202 164.918 21.314C164.862 21.398 164.82 21.454 164.792 21.482C164.344 21.734 163.938 21.944 163.574 22.112C163.238 22.252 162.916 22.364 162.608 22.448C162.3 22.504 162.006 22.56 161.726 22.616C161.446 22.644 161.138 22.672 160.802 22.7C160.27 22.84 159.934 23.05 159.794 23.33C159.654 23.582 159.486 23.918 159.29 24.338L159.122 24.674C159.066 24.926 158.968 25.15 158.828 25.346C158.716 25.542 158.604 25.738 158.492 25.934C158.436 25.99 158.394 26.046 158.366 26.102C158.338 26.13 158.296 26.158 158.24 26.186L157.82 26.69C157.736 26.83 157.624 26.984 157.484 27.152C157.372 27.292 157.246 27.418 157.106 27.53L156.812 27.866L156.392 28.244C156.252 28.3 156.126 28.3 156.014 28.244C155.958 28.188 155.888 28.146 155.804 28.118C155.72 28.062 155.65 28.02 155.594 27.992C155.566 27.908 155.552 27.782 155.552 27.614C155.496 27.418 155.426 27.25 155.342 27.11C155.286 26.97 155.16 26.886 154.964 26.858C154.88 26.802 154.796 26.746 154.712 26.69C154.656 26.606 154.6 26.536 154.544 26.48C154.46 26.34 154.376 26.242 154.292 26.186C154.236 26.13 154.152 26.074 154.04 26.018C153.844 25.878 153.732 25.668 153.704 25.388C153.676 25.108 153.746 24.828 153.914 24.548C154.054 24.24 154.264 23.988 154.544 23.792C154.768 23.596 155.048 23.428 155.384 23.288C155.636 23.12 155.874 23.022 156.098 22.994C156.35 22.938 156.616 22.84 156.896 22.7C157.176 22.532 157.4 22.224 157.568 21.776C157.708 21.216 157.848 20.586 157.988 19.886C158.156 19.158 158.268 18.514 158.324 17.954V16.526C158.324 16.414 158.31 16.33 158.282 16.274C158.254 16.162 158.198 16.092 158.114 16.064C158.03 16.036 157.96 16.064 157.904 16.148C157.82 16.176 157.764 16.246 157.736 16.358C157.596 16.582 157.456 16.82 157.316 17.072C157.176 17.296 157.05 17.534 156.938 17.786C156.63 18.402 156.322 19.032 156.014 19.676C155.706 20.292 155.398 20.894 155.09 21.482C154.866 21.93 154.642 22.364 154.418 22.784C154.222 23.176 154.026 23.61 153.83 24.086C153.662 24.478 153.452 24.87 153.2 25.262C152.976 25.626 152.738 26.004 152.486 26.396C152.234 26.76 151.996 27.138 151.772 27.53C151.548 27.922 151.366 28.328 151.226 28.748C151.17 28.888 151.114 29.028 151.058 29.168C151.002 29.308 150.904 29.42 150.764 29.504C150.652 29.56 150.568 29.644 150.512 29.756C150.484 29.896 150.47 30.036 150.47 30.176C150.47 30.512 150.428 30.806 150.344 31.058C150.232 31.282 150.148 31.422 150.092 31.478C149.952 31.618 149.854 31.744 149.798 31.856C149.742 31.968 149.686 32.08 149.63 32.192C149.406 32.724 149.224 33.256 149.084 33.788C148.944 34.32 148.846 34.866 148.79 35.426C148.762 35.678 148.734 35.93 148.706 36.182C148.706 36.434 148.678 36.686 148.622 36.938C148.566 37.358 148.398 37.624 148.118 37.736C147.894 37.876 147.726 38.086 147.614 38.366C147.586 38.394 147.558 38.436 147.53 38.492C147.474 38.548 147.432 38.576 147.404 38.576C147.348 38.576 147.306 38.632 147.278 38.744C147.25 38.856 147.208 38.94 147.152 38.996H147.11C146.774 39.052 146.508 38.968 146.312 38.744C146.088 38.52 145.906 38.212 145.766 37.82C145.626 37.428 145.542 37.008 145.514 36.56C145.458 36.14 145.416 35.72 145.388 35.3C145.332 34.292 145.332 33.298 145.388 32.318C145.444 31.338 145.542 30.344 145.682 29.336C145.738 28.944 145.808 28.552 145.892 28.16C145.948 27.74 146.004 27.334 146.06 26.942C146.144 26.298 146.256 25.654 146.396 25.01C146.536 24.366 146.69 23.736 146.858 23.12C147.306 21.272 147.81 19.466 148.37 17.702C148.426 17.478 148.496 17.268 148.58 17.072C148.664 16.876 148.734 16.652 148.79 16.4C149.042 15.756 149.28 15.112 149.504 14.468C149.728 13.796 149.966 13.138 150.218 12.494C150.33 12.186 150.456 11.864 150.596 11.528C150.764 11.164 150.918 10.828 151.058 10.52C151.254 10.352 151.464 10.352 151.688 10.52L152.696 11.15L152.738 11.192C153.382 11.948 153.76 12.928 153.872 14.132C153.956 14.776 153.914 15.462 153.746 16.19C153.606 16.694 153.466 17.212 153.326 17.744C153.186 18.276 153.018 18.808 152.822 19.34C152.682 19.676 152.556 20.04 152.444 20.432C152.332 20.824 152.206 21.216 152.066 21.608C151.898 22.196 151.842 22.63 151.898 22.91C151.954 23.19 152.052 23.372 152.192 23.456C152.332 23.512 152.486 23.484 152.654 23.372C152.822 23.26 152.948 23.12 153.032 22.952C153.088 22.784 153.228 22.532 153.452 22.196C153.704 21.86 153.858 21.58 153.914 21.356L155.3 18.5C155.496 17.996 155.748 17.548 156.056 17.156C156.196 16.988 156.336 16.806 156.476 16.61C156.644 16.414 156.812 16.232 156.98 16.064C157.288 15.756 157.596 15.602 157.904 15.602H158.618C158.814 15.546 158.996 15.588 159.164 15.728C159.332 15.868 159.5 16.008 159.668 16.148C159.892 16.288 160.032 16.554 160.088 16.946C160.116 17.114 160.144 17.296 160.172 17.492C160.2 17.66 160.214 17.814 160.214 17.954L160.382 19.172L160.424 20.726Z" fill="#23572B"/>
</svg>
